<svg width="1054" height="586" viewBox="0 0 1054 586" fill="none" xmlns="http://www.w3.org/2000/svg">
<mask id="path-1-outside-1_196_285" maskUnits="userSpaceOnUse" x="0" y="0" width="1054" height="586" fill="black">
<rect fill="white" width="1054" height="586"/>
<path d="M175.926 17.2447H224.122V274.384L50.1963 110.305V262.139H2V5L175.926 169.079V17.2447Z"/>
<path d="M348.834 265.637C331.371 265.637 316.121 262.139 303.082 255.142C290.043 248.145 279.915 238.466 272.697 226.105C265.712 213.51 262.22 198.7 262.22 181.674C262.22 164.414 265.712 149.604 272.697 137.243C279.915 124.648 290.043 114.969 303.082 108.205C316.121 101.208 331.488 97.71 349.183 97.71C366.878 97.71 381.896 100.975 394.236 107.506C406.809 113.803 416.355 123.132 422.874 135.494C429.394 147.622 432.653 162.315 432.653 179.575C432.653 181.674 432.537 183.889 432.304 186.222C432.304 188.554 432.188 190.42 431.955 191.819H288.064V163.831H392.49L380.266 179.924C381.197 178.525 382.012 176.659 382.711 174.327C383.642 171.761 384.108 169.662 384.108 168.03C384.108 160.1 382.594 153.336 379.567 147.738C376.773 142.141 372.699 137.709 367.344 134.444C361.989 131.179 355.702 129.546 348.484 129.546C339.637 129.546 332.186 131.529 326.132 135.494C320.312 139.225 315.771 144.94 312.512 152.636C309.485 160.1 307.855 169.429 307.622 180.624C307.622 191.353 309.136 200.449 312.163 207.912C315.422 215.376 320.195 221.09 326.482 225.055C332.768 229.02 340.335 231.002 349.183 231.002C359.195 231.002 367.693 229.137 374.678 225.405C381.896 221.44 387.833 215.609 392.49 207.912L431.955 220.157C423.573 235.317 412.397 246.746 398.427 254.442C384.69 261.906 368.159 265.637 348.834 265.637Z"/>
<path d="M498.901 212.111C498.901 216.775 500.065 220.857 502.394 224.355C504.722 227.621 507.865 230.186 511.823 232.052C516.014 233.685 520.555 234.501 525.444 234.501C532.429 234.501 538.716 233.102 544.303 230.303C549.891 227.271 554.432 223.073 557.924 217.708C561.417 212.111 563.163 205.463 563.163 197.767L568.751 218.758C568.751 229.02 565.84 237.65 560.02 244.647C554.432 251.644 547.097 256.891 538.017 260.39C529.169 263.888 519.856 265.637 510.077 265.637C500.065 265.637 490.752 263.655 482.137 259.69C473.522 255.725 466.538 250.011 461.182 242.547C456.06 234.851 453.499 225.521 453.499 214.56C453.499 198.933 458.97 186.572 469.914 177.476C480.857 168.379 496.34 163.831 516.364 163.831C526.608 163.831 535.572 164.881 543.256 166.98C551.172 169.079 557.808 171.645 563.163 174.677C568.518 177.709 572.36 180.624 574.688 183.423V204.414C568.402 199.749 561.3 196.251 553.384 193.918C545.7 191.586 537.551 190.42 528.937 190.42C521.952 190.42 516.247 191.353 511.823 193.219C507.4 194.851 504.14 197.3 502.044 200.566C499.949 203.598 498.901 207.446 498.901 212.111ZM481.439 146.689L464.675 115.902C473.057 111.471 483.301 107.273 495.409 103.308C507.516 99.1094 521.02 97.0103 535.922 97.0103C549.659 97.0103 561.882 98.9927 572.593 102.958C583.303 106.923 591.685 112.753 597.738 120.45C603.792 127.914 606.819 137.126 606.819 148.088V262.139H563.163V157.534C563.163 153.103 562.464 149.371 561.067 146.339C559.67 143.074 557.458 140.392 554.432 138.292C551.638 136.193 548.262 134.677 544.303 133.744C540.345 132.811 535.922 132.345 531.032 132.345C523.581 132.345 516.48 133.161 509.728 134.794C502.976 136.427 497.155 138.409 492.265 140.741C487.376 143.074 483.767 145.056 481.439 146.689Z"/>
<path d="M628.292 101.208H727.479V139.342H628.292V101.208ZM655.883 45.2326H699.539V262.139H655.883V45.2326Z"/>
<path d="M2 262.139H51.9425V507.033H2V262.139ZM32.3846 304.471V262.139H80.9301C100.255 262.139 116.67 265.288 130.174 271.585C143.911 277.882 154.389 286.862 161.606 298.523C168.824 310.185 172.433 324.062 172.433 340.155C172.433 356.015 168.824 369.892 161.606 381.787C154.389 393.449 143.911 402.428 130.174 408.726C116.67 415.023 100.255 418.172 80.9301 418.172H32.3846V375.84H80.9301C94.2016 375.84 104.679 372.808 112.362 366.744C120.046 360.68 123.888 351.817 123.888 340.155C123.888 328.26 120.046 319.398 112.362 313.567C104.679 307.503 94.2016 304.471 80.9301 304.471H32.3846Z"/>
<path d="M272.094 510.532C254.632 510.532 239.382 507.033 226.343 500.036C213.304 493.039 203.176 483.36 195.958 470.999C188.973 458.404 185.481 443.594 185.481 426.568C185.481 409.309 188.973 394.498 195.958 382.137C203.176 369.543 213.304 359.863 226.343 353.1C239.382 346.103 254.748 342.604 272.444 342.604C290.139 342.604 305.157 345.869 317.497 352.4C330.07 358.697 339.616 368.027 346.135 380.388C352.654 392.516 355.914 407.21 355.914 424.469C355.914 426.568 355.798 428.784 355.565 431.116C355.565 433.448 355.448 435.314 355.216 436.714H211.325V408.726H315.75L303.527 424.819C304.458 423.419 305.273 421.553 305.972 419.221C306.903 416.656 307.369 414.556 307.369 412.924C307.369 404.994 305.855 398.23 302.828 392.633C300.034 387.035 295.96 382.604 290.605 379.338C285.249 376.073 278.963 374.44 271.745 374.44C262.898 374.44 255.447 376.423 249.393 380.388C243.572 384.12 239.032 389.834 235.773 397.53C232.746 404.994 231.116 414.323 230.883 425.518C230.883 436.247 232.397 445.343 235.423 452.807C238.683 460.27 243.456 465.984 249.743 469.949C256.029 473.914 263.596 475.897 272.444 475.897C282.455 475.897 290.954 474.031 297.939 470.299C305.157 466.334 311.094 460.503 315.75 452.807L355.216 465.051C346.834 480.211 335.658 491.64 321.688 499.337C307.951 506.8 291.42 510.532 272.094 510.532Z"/>
<path d="M379.205 426.568C379.205 409.775 383.046 395.082 390.73 382.487C398.646 369.892 409.24 360.097 422.511 353.1C436.016 346.103 451.266 342.604 468.263 342.604C485.26 342.604 500.394 346.103 513.665 353.1C527.169 360.097 537.763 369.892 545.447 382.487C553.363 395.082 557.321 409.775 557.321 426.568C557.321 443.128 553.363 457.821 545.447 470.649C537.763 483.243 527.169 493.039 513.665 500.036C500.394 507.033 485.26 510.532 468.263 510.532C451.266 510.532 436.016 507.033 422.511 500.036C409.24 493.039 398.646 483.243 390.73 470.649C383.046 457.821 379.205 443.128 379.205 426.568ZM425.305 426.568C425.305 435.664 427.168 443.711 430.893 450.708C434.851 457.471 440.09 462.836 446.609 466.801C453.129 470.532 460.347 472.398 468.263 472.398C476.179 472.398 483.397 470.532 489.916 466.801C496.436 462.836 501.558 457.471 505.283 450.708C509.241 443.711 511.22 435.664 511.22 426.568C511.22 417.472 509.241 409.425 505.283 402.428C501.558 395.431 496.436 390.067 489.916 386.335C483.397 382.604 476.179 380.738 468.263 380.738C460.347 380.738 453.129 382.604 446.609 386.335C440.09 390.067 434.851 395.431 430.893 402.428C427.168 409.425 425.305 417.472 425.305 426.568Z"/>
<path d="M635.613 584H590.211V346.103H635.613V584ZM767.629 426.568C767.629 444.76 764.02 460.27 756.802 473.098C749.584 485.926 740.038 495.605 728.164 502.135C716.522 508.666 703.949 511.931 690.445 511.931C676.708 511.931 664.717 508.433 654.472 501.436C644.46 494.439 636.661 484.526 631.073 471.698C625.717 458.871 623.04 443.827 623.04 426.568C623.04 409.076 625.717 394.032 631.073 381.437C636.661 368.61 644.46 358.697 654.472 351.7C664.717 344.703 676.708 341.205 690.445 341.205C703.949 341.205 716.522 344.47 728.164 351.001C740.038 357.531 749.584 367.21 756.802 380.038C764.02 392.633 767.629 408.143 767.629 426.568ZM720.829 426.568C720.829 417.005 718.85 408.842 714.892 402.079C710.934 395.315 705.579 390.184 698.827 386.685C692.307 383.187 685.09 381.437 677.173 381.437C670.421 381.437 663.786 383.187 657.266 386.685C650.98 389.95 645.741 394.965 641.55 401.729C637.592 408.492 635.613 416.772 635.613 426.568C635.613 436.364 637.592 444.643 641.55 451.407C645.741 458.171 650.98 463.302 657.266 466.801C663.786 470.066 670.421 471.698 677.173 471.698C685.09 471.698 692.307 469.949 698.827 466.451C705.579 462.952 710.934 457.821 714.892 451.057C718.85 444.294 720.829 436.131 720.829 426.568Z"/>
<path d="M801.353 234.151H846.755V507.033H801.353V234.151Z"/>
<path d="M967.18 510.532C949.718 510.532 934.468 507.033 921.429 500.036C908.39 493.039 898.262 483.36 891.044 470.999C884.059 458.404 880.567 443.594 880.567 426.568C880.567 409.309 884.059 394.498 891.044 382.137C898.262 369.543 908.39 359.863 921.429 353.1C934.468 346.103 949.834 342.604 967.53 342.604C985.225 342.604 1000.24 345.869 1012.58 352.4C1025.16 358.697 1034.7 368.027 1041.22 380.388C1047.74 392.516 1051 407.21 1051 424.469C1051 426.568 1050.88 428.784 1050.65 431.116C1050.65 433.448 1050.53 435.314 1050.3 436.714H906.411V408.726H1010.84L998.613 424.819C999.544 423.419 1000.36 421.553 1001.06 419.221C1001.99 416.656 1002.45 414.556 1002.45 412.924C1002.45 404.994 1000.94 398.23 997.914 392.633C995.12 387.035 991.046 382.604 985.691 379.338C980.335 376.073 974.049 374.44 966.831 374.44C957.984 374.44 950.533 376.423 944.479 380.388C938.658 384.12 934.118 389.834 930.859 397.53C927.832 404.994 926.202 414.323 925.969 425.518C925.969 436.247 927.482 445.343 930.509 452.807C933.769 460.27 938.542 465.984 944.828 469.949C951.115 473.914 958.682 475.897 967.53 475.897C977.541 475.897 986.04 474.031 993.025 470.299C1000.24 466.334 1006.18 460.503 1010.84 452.807L1050.3 465.051C1041.92 480.211 1030.74 491.64 1016.77 499.337C1003.04 506.8 986.505 510.532 967.18 510.532Z"/>
</mask>
<path d="M175.926 17.2447H224.122V274.384L50.1963 110.305V262.139H2V5L175.926 169.079V17.2447Z" fill="url(#paint0_linear_196_285)"/>
<path d="M348.834 265.637C331.371 265.637 316.121 262.139 303.082 255.142C290.043 248.145 279.915 238.466 272.697 226.105C265.712 213.51 262.22 198.7 262.22 181.674C262.22 164.414 265.712 149.604 272.697 137.243C279.915 124.648 290.043 114.969 303.082 108.205C316.121 101.208 331.488 97.71 349.183 97.71C366.878 97.71 381.896 100.975 394.236 107.506C406.809 113.803 416.355 123.132 422.874 135.494C429.394 147.622 432.653 162.315 432.653 179.575C432.653 181.674 432.537 183.889 432.304 186.222C432.304 188.554 432.188 190.42 431.955 191.819H288.064V163.831H392.49L380.266 179.924C381.197 178.525 382.012 176.659 382.711 174.327C383.642 171.761 384.108 169.662 384.108 168.03C384.108 160.1 382.594 153.336 379.567 147.738C376.773 142.141 372.699 137.709 367.344 134.444C361.989 131.179 355.702 129.546 348.484 129.546C339.637 129.546 332.186 131.529 326.132 135.494C320.312 139.225 315.771 144.94 312.512 152.636C309.485 160.1 307.855 169.429 307.622 180.624C307.622 191.353 309.136 200.449 312.163 207.912C315.422 215.376 320.195 221.09 326.482 225.055C332.768 229.02 340.335 231.002 349.183 231.002C359.195 231.002 367.693 229.137 374.678 225.405C381.896 221.44 387.833 215.609 392.49 207.912L431.955 220.157C423.573 235.317 412.397 246.746 398.427 254.442C384.69 261.906 368.159 265.637 348.834 265.637Z" fill="url(#paint1_linear_196_285)"/>
<path d="M498.901 212.111C498.901 216.775 500.065 220.857 502.394 224.355C504.722 227.621 507.865 230.186 511.823 232.052C516.014 233.685 520.555 234.501 525.444 234.501C532.429 234.501 538.716 233.102 544.303 230.303C549.891 227.271 554.432 223.073 557.924 217.708C561.417 212.111 563.163 205.463 563.163 197.767L568.751 218.758C568.751 229.02 565.84 237.65 560.02 244.647C554.432 251.644 547.097 256.891 538.017 260.39C529.169 263.888 519.856 265.637 510.077 265.637C500.065 265.637 490.752 263.655 482.137 259.69C473.522 255.725 466.538 250.011 461.182 242.547C456.06 234.851 453.499 225.521 453.499 214.56C453.499 198.933 458.97 186.572 469.914 177.476C480.857 168.379 496.34 163.831 516.364 163.831C526.608 163.831 535.572 164.881 543.256 166.98C551.172 169.079 557.808 171.645 563.163 174.677C568.518 177.709 572.36 180.624 574.688 183.423V204.414C568.402 199.749 561.3 196.251 553.384 193.918C545.7 191.586 537.551 190.42 528.937 190.42C521.952 190.42 516.247 191.353 511.823 193.219C507.4 194.851 504.14 197.3 502.044 200.566C499.949 203.598 498.901 207.446 498.901 212.111ZM481.439 146.689L464.675 115.902C473.057 111.471 483.301 107.273 495.409 103.308C507.516 99.1094 521.02 97.0103 535.922 97.0103C549.659 97.0103 561.882 98.9927 572.593 102.958C583.303 106.923 591.685 112.753 597.738 120.45C603.792 127.914 606.819 137.126 606.819 148.088V262.139H563.163V157.534C563.163 153.103 562.464 149.371 561.067 146.339C559.67 143.074 557.458 140.392 554.432 138.292C551.638 136.193 548.262 134.677 544.303 133.744C540.345 132.811 535.922 132.345 531.032 132.345C523.581 132.345 516.48 133.161 509.728 134.794C502.976 136.427 497.155 138.409 492.265 140.741C487.376 143.074 483.767 145.056 481.439 146.689Z" fill="url(#paint2_linear_196_285)"/>
<path d="M628.292 101.208H727.479V139.342H628.292V101.208ZM655.883 45.2326H699.539V262.139H655.883V45.2326Z" fill="url(#paint3_linear_196_285)"/>
<path d="M2 262.139H51.9425V507.033H2V262.139ZM32.3846 304.471V262.139H80.9301C100.255 262.139 116.67 265.288 130.174 271.585C143.911 277.882 154.389 286.862 161.606 298.523C168.824 310.185 172.433 324.062 172.433 340.155C172.433 356.015 168.824 369.892 161.606 381.787C154.389 393.449 143.911 402.428 130.174 408.726C116.67 415.023 100.255 418.172 80.9301 418.172H32.3846V375.84H80.9301C94.2016 375.84 104.679 372.808 112.362 366.744C120.046 360.68 123.888 351.817 123.888 340.155C123.888 328.26 120.046 319.398 112.362 313.567C104.679 307.503 94.2016 304.471 80.9301 304.471H32.3846Z" fill="url(#paint4_linear_196_285)"/>
<path d="M272.094 510.532C254.632 510.532 239.382 507.033 226.343 500.036C213.304 493.039 203.176 483.36 195.958 470.999C188.973 458.404 185.481 443.594 185.481 426.568C185.481 409.309 188.973 394.498 195.958 382.137C203.176 369.543 213.304 359.863 226.343 353.1C239.382 346.103 254.748 342.604 272.444 342.604C290.139 342.604 305.157 345.869 317.497 352.4C330.07 358.697 339.616 368.027 346.135 380.388C352.654 392.516 355.914 407.21 355.914 424.469C355.914 426.568 355.798 428.784 355.565 431.116C355.565 433.448 355.448 435.314 355.216 436.714H211.325V408.726H315.75L303.527 424.819C304.458 423.419 305.273 421.553 305.972 419.221C306.903 416.656 307.369 414.556 307.369 412.924C307.369 404.994 305.855 398.23 302.828 392.633C300.034 387.035 295.96 382.604 290.605 379.338C285.249 376.073 278.963 374.44 271.745 374.44C262.898 374.44 255.447 376.423 249.393 380.388C243.572 384.12 239.032 389.834 235.773 397.53C232.746 404.994 231.116 414.323 230.883 425.518C230.883 436.247 232.397 445.343 235.423 452.807C238.683 460.27 243.456 465.984 249.743 469.949C256.029 473.914 263.596 475.897 272.444 475.897C282.455 475.897 290.954 474.031 297.939 470.299C305.157 466.334 311.094 460.503 315.75 452.807L355.216 465.051C346.834 480.211 335.658 491.64 321.688 499.337C307.951 506.8 291.42 510.532 272.094 510.532Z" fill="url(#paint5_linear_196_285)"/>
<path d="M379.205 426.568C379.205 409.775 383.046 395.082 390.73 382.487C398.646 369.892 409.24 360.097 422.511 353.1C436.016 346.103 451.266 342.604 468.263 342.604C485.26 342.604 500.394 346.103 513.665 353.1C527.169 360.097 537.763 369.892 545.447 382.487C553.363 395.082 557.321 409.775 557.321 426.568C557.321 443.128 553.363 457.821 545.447 470.649C537.763 483.243 527.169 493.039 513.665 500.036C500.394 507.033 485.26 510.532 468.263 510.532C451.266 510.532 436.016 507.033 422.511 500.036C409.24 493.039 398.646 483.243 390.73 470.649C383.046 457.821 379.205 443.128 379.205 426.568ZM425.305 426.568C425.305 435.664 427.168 443.711 430.893 450.708C434.851 457.471 440.09 462.836 446.609 466.801C453.129 470.532 460.347 472.398 468.263 472.398C476.179 472.398 483.397 470.532 489.916 466.801C496.436 462.836 501.558 457.471 505.283 450.708C509.241 443.711 511.22 435.664 511.22 426.568C511.22 417.472 509.241 409.425 505.283 402.428C501.558 395.431 496.436 390.067 489.916 386.335C483.397 382.604 476.179 380.738 468.263 380.738C460.347 380.738 453.129 382.604 446.609 386.335C440.09 390.067 434.851 395.431 430.893 402.428C427.168 409.425 425.305 417.472 425.305 426.568Z" fill="url(#paint6_linear_196_285)"/>
<path d="M635.613 584H590.211V346.103H635.613V584ZM767.629 426.568C767.629 444.76 764.02 460.27 756.802 473.098C749.584 485.926 740.038 495.605 728.164 502.135C716.522 508.666 703.949 511.931 690.445 511.931C676.708 511.931 664.717 508.433 654.472 501.436C644.46 494.439 636.661 484.526 631.073 471.698C625.717 458.871 623.04 443.827 623.04 426.568C623.04 409.076 625.717 394.032 631.073 381.437C636.661 368.61 644.46 358.697 654.472 351.7C664.717 344.703 676.708 341.205 690.445 341.205C703.949 341.205 716.522 344.47 728.164 351.001C740.038 357.531 749.584 367.21 756.802 380.038C764.02 392.633 767.629 408.143 767.629 426.568ZM720.829 426.568C720.829 417.005 718.85 408.842 714.892 402.079C710.934 395.315 705.579 390.184 698.827 386.685C692.307 383.187 685.09 381.437 677.173 381.437C670.421 381.437 663.786 383.187 657.266 386.685C650.98 389.95 645.741 394.965 641.55 401.729C637.592 408.492 635.613 416.772 635.613 426.568C635.613 436.364 637.592 444.643 641.55 451.407C645.741 458.171 650.98 463.302 657.266 466.801C663.786 470.066 670.421 471.698 677.173 471.698C685.09 471.698 692.307 469.949 698.827 466.451C705.579 462.952 710.934 457.821 714.892 451.057C718.85 444.294 720.829 436.131 720.829 426.568Z" fill="url(#paint7_linear_196_285)"/>
<path d="M801.353 234.151H846.755V507.033H801.353V234.151Z" fill="url(#paint8_linear_196_285)"/>
<path d="M967.18 510.532C949.718 510.532 934.468 507.033 921.429 500.036C908.39 493.039 898.262 483.36 891.044 470.999C884.059 458.404 880.567 443.594 880.567 426.568C880.567 409.309 884.059 394.498 891.044 382.137C898.262 369.543 908.39 359.863 921.429 353.1C934.468 346.103 949.834 342.604 967.53 342.604C985.225 342.604 1000.24 345.869 1012.58 352.4C1025.16 358.697 1034.7 368.027 1041.22 380.388C1047.74 392.516 1051 407.21 1051 424.469C1051 426.568 1050.88 428.784 1050.65 431.116C1050.65 433.448 1050.53 435.314 1050.3 436.714H906.411V408.726H1010.84L998.613 424.819C999.544 423.419 1000.36 421.553 1001.06 419.221C1001.99 416.656 1002.45 414.556 1002.45 412.924C1002.45 404.994 1000.94 398.23 997.914 392.633C995.12 387.035 991.046 382.604 985.691 379.338C980.335 376.073 974.049 374.44 966.831 374.44C957.984 374.44 950.533 376.423 944.479 380.388C938.658 384.12 934.118 389.834 930.859 397.53C927.832 404.994 926.202 414.323 925.969 425.518C925.969 436.247 927.482 445.343 930.509 452.807C933.769 460.27 938.542 465.984 944.828 469.949C951.115 473.914 958.682 475.897 967.53 475.897C977.541 475.897 986.04 474.031 993.025 470.299C1000.24 466.334 1006.18 460.503 1010.84 452.807L1050.3 465.051C1041.92 480.211 1030.74 491.64 1016.77 499.337C1003.04 506.8 986.505 510.532 967.18 510.532Z" fill="url(#paint9_linear_196_285)"/>
<path d="M175.926 17.2447V15.2447H173.926V17.2447H175.926ZM224.122 17.2447H226.122V15.2447H224.122V17.2447ZM224.122 274.384L222.749 275.838L226.122 279.02V274.384H224.122ZM50.1963 110.305L51.5687 108.85L48.1963 105.668V110.305H50.1963ZM50.1963 262.139V264.139H52.1963V262.139H50.1963ZM2 5L3.37243 3.54521L0 0.363697V5H2ZM175.926 169.079L174.553 170.534L177.926 173.715V169.079H175.926ZM303.082 255.142L302.136 256.904L303.082 255.142ZM272.697 226.105L270.948 227.075L270.959 227.094L270.97 227.113L272.697 226.105ZM272.697 137.243L270.962 136.248L270.956 136.259L272.697 137.243ZM303.082 108.205L304.003 109.981L304.015 109.974L304.028 109.968L303.082 108.205ZM394.236 107.506L393.3 109.273L393.32 109.284L393.34 109.294L394.236 107.506ZM422.874 135.494L421.105 136.427L421.109 136.434L421.113 136.441L422.874 135.494ZM432.304 186.222L430.314 186.023L430.304 186.122V186.222H432.304ZM431.955 191.819V193.819H433.649L433.928 192.148L431.955 191.819ZM288.064 191.819H286.064V193.819H288.064V191.819ZM288.064 163.831V161.831H286.064V163.831H288.064ZM392.49 163.831L394.082 165.041L396.52 161.831H392.49V163.831ZM380.266 179.924L378.601 178.816L381.859 181.134L380.266 179.924ZM382.711 174.327L380.831 173.644L380.811 173.698L380.795 173.753L382.711 174.327ZM379.567 147.738L377.778 148.632L377.793 148.661L377.808 148.69L379.567 147.738ZM326.132 135.494L327.212 137.177L327.22 137.172L327.228 137.167L326.132 135.494ZM312.512 152.636L310.67 151.856L310.664 151.87L310.658 151.885L312.512 152.636ZM307.622 180.624L305.623 180.583L305.622 180.603V180.624H307.622ZM312.163 207.912L310.309 208.664L310.319 208.689L310.33 208.713L312.163 207.912ZM326.482 225.055L325.415 226.747L326.482 225.055ZM374.678 225.405L375.62 227.169L375.631 227.163L375.641 227.158L374.678 225.405ZM392.49 207.912L393.082 206.002L391.588 205.539L390.778 206.877L392.49 207.912ZM431.955 220.157L433.705 221.125L434.894 218.975L432.547 218.247L431.955 220.157ZM398.427 254.442L399.382 256.2L399.392 256.194L398.427 254.442ZM502.394 224.355L500.729 225.463L500.747 225.49L500.765 225.516L502.394 224.355ZM511.823 232.052L510.971 233.861L511.033 233.89L511.097 233.916L511.823 232.052ZM544.303 230.303L545.199 232.091L545.228 232.076L545.257 232.061L544.303 230.303ZM557.924 217.708L559.6 218.799L559.611 218.783L559.621 218.767L557.924 217.708ZM563.163 197.767L565.096 197.252L561.163 197.767H563.163ZM568.751 218.758H570.751V218.496L570.684 218.243L568.751 218.758ZM560.02 244.647L558.482 243.367L558.469 243.383L558.457 243.398L560.02 244.647ZM538.017 260.39L537.298 258.523L537.29 258.527L537.282 258.53L538.017 260.39ZM482.137 259.69L481.301 261.507L482.137 259.69ZM461.182 242.547L459.517 243.656L459.537 243.685L459.557 243.713L461.182 242.547ZM469.914 177.476L471.192 179.014L469.914 177.476ZM543.256 166.98L542.729 168.909L542.736 168.911L542.743 168.913L543.256 166.98ZM563.163 174.677L562.177 176.417V176.417L563.163 174.677ZM574.688 183.423H576.688V182.7L576.226 182.144L574.688 183.423ZM574.688 204.414L573.496 206.02L576.688 208.388V204.414H574.688ZM553.384 193.918L552.803 195.832L552.811 195.835L552.819 195.837L553.384 193.918ZM511.823 193.219L512.516 195.095L512.559 195.079L512.601 195.062L511.823 193.219ZM502.044 200.566L503.69 201.703L503.709 201.675L503.728 201.646L502.044 200.566ZM481.439 146.689L479.682 147.645L480.753 149.612L482.587 148.326L481.439 146.689ZM464.675 115.902L463.74 114.134L461.95 115.08L462.918 116.859L464.675 115.902ZM495.409 103.308L496.031 105.208L496.048 105.203L496.064 105.197L495.409 103.308ZM572.593 102.958L571.898 104.833L572.593 102.958ZM597.738 120.45L596.166 121.687L596.176 121.698L596.185 121.71L597.738 120.45ZM606.819 262.139V264.139H608.819V262.139H606.819ZM563.163 262.139H561.163V264.139H563.163V262.139ZM561.067 146.339L559.229 147.126L559.239 147.151L559.251 147.176L561.067 146.339ZM554.432 138.292L553.23 139.891L553.261 139.914L553.292 139.936L554.432 138.292ZM492.265 140.741L493.127 142.547L492.265 140.741ZM628.292 101.208V99.2085H626.292V101.208H628.292ZM727.479 101.208H729.479V99.2085H727.479V101.208ZM727.479 139.342V141.342H729.479V139.342H727.479ZM628.292 139.342H626.292V141.342H628.292V139.342ZM655.883 45.2326V43.2326H653.883V45.2326H655.883ZM699.539 45.2326H701.539V43.2326H699.539V45.2326ZM699.539 262.139V264.139H701.539V262.139H699.539ZM655.883 262.139H653.883V264.139H655.883V262.139ZM51.9425 262.139H53.9425V260.139H51.9425V262.139ZM51.9425 507.033V509.033H53.9425V507.033H51.9425ZM2 507.033H0V509.033H2V507.033ZM32.3846 304.471H30.3846V306.471H32.3846V304.471ZM32.3846 262.139V260.139H30.3846V262.139H32.3846ZM130.174 271.585L129.329 273.398L129.341 273.403L130.174 271.585ZM161.606 298.523L163.307 297.471L161.606 298.523ZM161.606 381.787L163.307 382.84L163.312 382.832L163.316 382.825L161.606 381.787ZM130.174 408.726L129.341 406.908L129.329 406.913L130.174 408.726ZM32.3846 418.172H30.3846V420.172H32.3846V418.172ZM32.3846 375.84V373.84H30.3846V375.84H32.3846ZM112.362 313.567L111.123 315.137L111.138 315.148L111.153 315.16L112.362 313.567ZM226.343 500.036L225.397 501.799L226.343 500.036ZM195.958 470.999L194.209 471.969L194.22 471.988L194.231 472.007L195.958 470.999ZM195.958 382.137L194.223 381.143L194.217 381.153L195.958 382.137ZM226.343 353.1L227.264 354.875L227.276 354.869L227.289 354.862L226.343 353.1ZM317.497 352.4L316.561 354.168L316.581 354.178L316.601 354.188L317.497 352.4ZM346.135 380.388L344.366 381.321L344.37 381.328L344.373 381.335L346.135 380.388ZM355.565 431.116L353.575 430.917L353.565 431.016V431.116H355.565ZM355.216 436.714V438.714H356.91L357.188 437.042L355.216 436.714ZM211.325 436.714H209.325V438.714H211.325V436.714ZM211.325 408.726V406.726H209.325V408.726H211.325ZM315.75 408.726L317.343 409.935L319.781 406.726H315.75V408.726ZM303.527 424.819L301.862 423.711L305.119 426.028L303.527 424.819ZM305.972 419.221L304.092 418.539L304.072 418.592L304.056 418.647L305.972 419.221ZM302.828 392.633L301.039 393.526L301.053 393.555L301.069 393.584L302.828 392.633ZM249.393 380.388L250.473 382.072L250.481 382.066L250.489 382.061L249.393 380.388ZM235.773 397.53L233.931 396.751L233.925 396.765L233.919 396.779L235.773 397.53ZM230.883 425.518L228.884 425.477L228.883 425.498V425.518H230.883ZM235.423 452.807L233.57 453.558L233.58 453.583L233.591 453.607L235.423 452.807ZM249.743 469.949L248.676 471.641L249.743 469.949ZM297.939 470.299L298.881 472.063L298.892 472.058L298.902 472.052L297.939 470.299ZM315.75 452.807L316.343 450.896L314.849 450.433L314.039 451.771L315.75 452.807ZM355.216 465.051L356.966 466.019L358.155 463.869L355.808 463.141L355.216 465.051ZM321.688 499.337L322.643 501.094L322.653 501.088L321.688 499.337ZM390.73 382.487L389.036 381.423L389.029 381.434L389.022 381.445L390.73 382.487ZM422.511 353.1L421.591 351.324L421.585 351.327L421.579 351.331L422.511 353.1ZM513.665 353.1L512.732 354.869L512.739 354.872L512.745 354.875L513.665 353.1ZM545.447 382.487L543.739 383.529L543.746 383.54L543.753 383.551L545.447 382.487ZM545.447 470.649L543.745 469.599L543.739 469.607L545.447 470.649ZM513.665 500.036L512.745 498.26L512.739 498.264L512.732 498.267L513.665 500.036ZM422.511 500.036L421.579 501.805L421.585 501.809L421.591 501.812L422.511 500.036ZM390.73 470.649L389.014 471.677L389.025 471.695L389.036 471.713L390.73 470.649ZM430.893 450.708L429.128 451.647L429.147 451.683L429.167 451.718L430.893 450.708ZM446.609 466.801L445.57 468.509L445.593 468.523L445.616 468.536L446.609 466.801ZM489.916 466.801L490.91 468.536L490.933 468.523L490.955 468.509L489.916 466.801ZM505.283 450.708L503.542 449.723L503.537 449.733L503.531 449.743L505.283 450.708ZM505.283 402.428L503.518 403.368L503.53 403.391L503.542 403.413L505.283 402.428ZM430.893 402.428L429.152 401.444L429.14 401.466L429.128 401.488L430.893 402.428ZM635.613 584V586H637.613V584H635.613ZM590.211 584H588.211V586H590.211V584ZM590.211 346.103V344.103H588.211V346.103H590.211ZM635.613 346.103H637.613V344.103H635.613V346.103ZM756.802 473.098L758.545 474.079L756.802 473.098ZM728.164 502.135L727.2 500.383L727.192 500.387L727.185 500.391L728.164 502.135ZM654.472 501.436L653.327 503.075L653.335 503.081L653.344 503.087L654.472 501.436ZM631.073 471.698L629.227 472.469L629.233 472.483L629.239 472.497L631.073 471.698ZM631.073 381.437L629.239 380.639L629.235 380.647L629.232 380.655L631.073 381.437ZM654.472 351.7L653.344 350.049L653.335 350.055L653.327 350.061L654.472 351.7ZM728.164 351.001L727.185 352.745L727.192 352.749L727.2 352.753L728.164 351.001ZM756.802 380.038L755.059 381.019L755.063 381.026L755.067 381.033L756.802 380.038ZM714.892 402.079L713.166 403.089L714.892 402.079ZM698.827 386.685L697.881 388.447L697.894 388.454L697.907 388.461L698.827 386.685ZM657.266 386.685L658.188 388.46L658.2 388.454L658.212 388.447L657.266 386.685ZM641.55 401.729L639.85 400.675L639.837 400.697L639.824 400.719L641.55 401.729ZM641.55 451.407L639.824 452.417L639.837 452.439L639.85 452.461L641.55 451.407ZM657.266 466.801L656.294 468.548L656.332 468.569L656.371 468.589L657.266 466.801ZM698.827 466.451L697.907 464.675L697.894 464.682L697.881 464.688L698.827 466.451ZM714.892 451.057L713.166 450.047L714.892 451.057ZM801.353 234.151V232.151H799.353V234.151H801.353ZM846.755 234.151H848.755V232.151H846.755V234.151ZM846.755 507.033V509.033H848.755V507.033H846.755ZM801.353 507.033H799.353V509.033H801.353V507.033ZM921.429 500.036L920.483 501.799L921.429 500.036ZM891.044 470.999L889.295 471.969L889.306 471.988L889.317 472.007L891.044 470.999ZM891.044 382.137L889.309 381.143L889.303 381.153L891.044 382.137ZM921.429 353.1L922.35 354.875L922.362 354.869L922.375 354.862L921.429 353.1ZM1012.58 352.4L1011.65 354.168L1011.67 354.178L1011.69 354.188L1012.58 352.4ZM1041.22 380.388L1039.45 381.321L1039.46 381.328L1039.46 381.335L1041.22 380.388ZM1050.65 431.116L1048.66 430.917L1048.65 431.016V431.116H1050.65ZM1050.3 436.714V438.714H1052L1052.27 437.042L1050.3 436.714ZM906.411 436.714H904.411V438.714H906.411V436.714ZM906.411 408.726V406.726H904.411V408.726H906.411ZM1010.84 408.726L1012.43 409.935L1014.87 406.726H1010.84V408.726ZM998.613 424.819L996.948 423.711L1000.21 426.028L998.613 424.819ZM1001.06 419.221L999.178 418.539L999.158 418.592L999.142 418.647L1001.06 419.221ZM997.914 392.633L996.125 393.526L996.139 393.555L996.155 393.584L997.914 392.633ZM944.479 380.388L945.559 382.072L945.567 382.066L945.575 382.061L944.479 380.388ZM930.859 397.53L929.017 396.751L929.011 396.765L929.005 396.779L930.859 397.53ZM925.969 425.518L923.97 425.477L923.969 425.498V425.518H925.969ZM930.509 452.807L928.656 453.558L928.666 453.583L928.677 453.607L930.509 452.807ZM944.828 469.949L943.762 471.641L944.828 469.949ZM993.025 470.299L993.967 472.063L993.978 472.058L993.988 472.052L993.025 470.299ZM1010.84 452.807L1011.43 450.896L1009.94 450.433L1009.13 451.771L1010.84 452.807ZM1050.3 465.051L1052.05 466.019L1053.24 463.869L1050.89 463.141L1050.3 465.051ZM1016.77 499.337L1017.73 501.094L1017.74 501.088L1016.77 499.337ZM175.926 19.2447H224.122V15.2447H175.926V19.2447ZM222.122 17.2447V274.384H226.122V17.2447H222.122ZM225.494 272.929L51.5687 108.85L48.8238 111.759L222.749 275.838L225.494 272.929ZM48.1963 110.305V262.139H52.1963V110.305H48.1963ZM50.1963 260.139H2V264.139H50.1963V260.139ZM4 262.139V5H0V262.139H4ZM0.627566 6.45479L174.553 170.534L177.298 167.624L3.37243 3.54521L0.627566 6.45479ZM177.926 169.079V17.2447H173.926V169.079H177.926ZM348.834 263.637C331.642 263.637 316.727 260.195 304.028 253.38L302.136 256.904C315.514 264.083 331.101 267.637 348.834 267.637V263.637ZM304.028 253.38C291.303 246.551 281.45 237.128 274.425 225.096L270.97 227.113C278.381 239.804 288.784 249.739 302.136 256.904L304.028 253.38ZM274.446 225.135C267.654 212.887 264.22 198.422 264.22 181.674H260.22C260.22 198.977 263.771 214.133 270.948 227.075L274.446 225.135ZM264.22 181.674C264.22 164.685 267.656 150.23 274.439 138.227L270.956 136.259C263.769 148.979 260.22 164.144 260.22 181.674H264.22ZM274.433 138.237C281.457 125.98 291.301 116.57 304.003 109.981L302.161 106.43C288.786 113.368 278.373 123.317 270.962 136.248L274.433 138.237ZM304.028 109.968C316.724 103.155 331.753 99.71 349.183 99.71V95.71C331.222 95.71 315.518 99.2623 302.136 106.443L304.028 109.968ZM349.183 99.71C366.637 99.71 381.315 102.931 393.3 109.273L395.171 105.738C382.476 99.0196 367.119 95.71 349.183 95.71V99.71ZM393.34 109.294C405.542 115.406 414.782 124.437 421.105 136.427L424.643 134.561C417.928 121.828 408.075 112.2 395.132 105.717L393.34 109.294ZM421.113 136.441C427.441 148.213 430.653 162.564 430.653 179.575H434.653C434.653 162.067 431.346 147.031 424.636 134.547L421.113 136.441ZM430.653 179.575C430.653 181.6 430.541 183.749 430.314 186.023L434.294 186.42C434.533 184.03 434.653 181.747 434.653 179.575H430.653ZM430.304 186.222C430.304 188.504 430.189 190.247 429.982 191.491L433.928 192.148C434.186 190.593 434.304 188.604 434.304 186.222H430.304ZM431.955 189.819H288.064V193.819H431.955V189.819ZM290.064 191.819V163.831H286.064V191.819H290.064ZM288.064 165.831H392.49V161.831H288.064V165.831ZM390.897 162.622L378.673 178.715L381.859 181.134L394.082 165.041L390.897 162.622ZM381.931 181.033C383.009 179.413 383.894 177.346 384.627 174.901L380.795 173.753C380.13 175.973 379.386 177.637 378.601 178.816L381.931 181.033ZM384.591 175.009C385.555 172.352 386.108 170 386.108 168.03H382.108C382.108 169.325 381.729 171.171 380.831 173.644L384.591 175.009ZM386.108 168.03C386.108 159.848 384.546 152.74 381.327 146.787L377.808 148.69C380.643 153.932 382.108 160.351 382.108 168.03H386.108ZM381.357 146.845C378.395 140.91 374.06 136.197 368.385 132.737L366.303 136.152C371.338 139.222 375.152 143.371 377.778 148.632L381.357 146.845ZM368.385 132.737C362.671 129.253 356.013 127.546 348.484 127.546V131.546C355.391 131.546 361.306 133.105 366.303 136.152L368.385 132.737ZM348.484 127.546C339.335 127.546 331.482 129.599 325.037 133.821L327.228 137.167C332.89 133.458 339.939 131.546 348.484 131.546V127.546ZM325.053 133.81C318.827 137.801 314.054 143.867 310.67 151.856L314.353 153.416C317.489 146.012 321.796 140.65 327.212 137.177L325.053 133.81ZM310.658 151.885C307.512 159.643 305.859 169.232 305.623 180.583L309.622 180.666C309.851 169.626 311.458 160.556 314.365 153.388L310.658 151.885ZM305.622 180.624C305.622 191.53 307.159 200.897 310.309 208.664L314.016 207.161C311.112 200.001 309.622 191.176 309.622 180.624H305.622ZM310.33 208.713C313.734 216.507 318.757 222.548 325.415 226.747L327.549 223.363C321.633 219.632 317.111 214.245 313.995 207.112L310.33 208.713ZM325.415 226.747C332.077 230.949 340.03 233.002 349.183 233.002V229.002C340.64 229.002 333.459 227.091 327.549 223.363L325.415 226.747ZM349.183 233.002C359.438 233.002 368.279 231.091 375.62 227.169L373.736 223.641C367.107 227.182 358.951 229.002 349.183 229.002V233.002ZM375.641 227.158C383.195 223.008 389.379 216.917 394.201 208.948L390.778 206.877C386.286 214.302 380.597 219.872 373.715 223.652L375.641 227.158ZM391.897 209.823L431.362 222.067L432.547 218.247L393.082 206.002L391.897 209.823ZM430.204 219.189C421.989 234.049 411.073 245.192 397.462 252.691L399.392 256.194C413.721 248.3 425.157 236.586 433.705 221.125L430.204 219.189ZM397.472 252.685C384.089 259.956 367.903 263.637 348.834 263.637V267.637C368.414 267.637 385.29 263.856 399.382 256.2L397.472 252.685ZM496.901 212.111C496.901 217.124 498.158 221.601 500.729 225.463L504.059 223.247C501.972 220.113 500.901 216.426 500.901 212.111H496.901ZM500.765 225.516C503.31 229.085 506.732 231.863 510.971 233.861L512.676 230.243C508.999 228.509 506.134 226.156 504.022 223.194L500.765 225.516ZM511.097 233.916C515.539 235.646 520.328 236.501 525.444 236.501V232.501C520.781 232.501 516.49 231.723 512.549 230.188L511.097 233.916ZM525.444 236.501C532.703 236.501 539.302 235.045 545.199 232.091L543.408 228.514C538.129 231.158 532.155 232.501 525.444 232.501V236.501ZM545.257 232.061C551.14 228.869 555.928 224.441 559.6 218.799L556.248 216.617C552.936 221.704 548.643 225.673 543.35 228.545L545.257 232.061ZM559.621 218.767C563.343 212.802 565.163 205.774 565.163 197.767H561.163C561.163 205.153 559.491 211.419 556.227 216.649L559.621 218.767ZM561.23 198.281L566.818 219.272L570.684 218.243L565.096 197.252L561.23 198.281ZM566.751 218.758C566.751 228.616 563.966 236.776 558.482 243.367L561.557 245.926C567.715 238.524 570.751 229.424 570.751 218.758H566.751ZM558.457 243.398C553.109 250.094 546.077 255.141 537.298 258.523L538.736 262.256C548.118 258.641 555.754 253.193 561.582 245.895L558.457 243.398ZM537.282 258.53C528.675 261.933 519.611 263.637 510.077 263.637V267.637C520.101 267.637 529.664 265.843 538.752 262.25L537.282 258.53ZM510.077 263.637C500.338 263.637 491.311 261.711 482.973 257.873L481.301 261.507C490.193 265.599 499.793 267.637 510.077 267.637V263.637ZM482.973 257.873C474.663 254.048 467.954 248.554 462.807 241.381L459.557 243.713C465.121 251.468 472.382 257.402 481.301 261.507L482.973 257.873ZM462.847 241.439C457.981 234.128 455.499 225.202 455.499 214.56H451.499C451.499 225.841 454.139 235.574 459.517 243.656L462.847 241.439ZM455.499 214.56C455.499 199.461 460.755 187.689 471.192 179.014L468.635 175.937C457.186 185.454 451.499 198.405 451.499 214.56H455.499ZM471.192 179.014C481.654 170.317 496.619 165.831 516.364 165.831V161.831C496.061 161.831 480.059 166.442 468.635 175.937L471.192 179.014ZM516.364 165.831C526.478 165.831 535.258 166.868 542.729 168.909L543.783 165.051C535.887 162.894 526.738 161.831 516.364 161.831V165.831ZM542.743 168.913C550.545 170.982 557.011 173.492 562.177 176.417L564.148 172.936C558.605 169.798 551.799 167.176 543.768 165.047L542.743 168.913ZM562.177 176.417C567.447 179.401 571.048 182.174 573.151 184.702L576.226 182.144C573.672 179.074 569.589 176.017 564.148 172.936L562.177 176.417ZM572.688 183.423V204.414H576.688V183.423H572.688ZM575.88 202.808C569.394 197.995 562.079 194.395 553.949 192L552.819 195.837C560.522 198.106 567.409 201.503 573.496 206.02L575.88 202.808ZM553.965 192.005C546.08 189.611 537.734 188.42 528.937 188.42V192.42C537.369 192.42 545.321 193.561 552.803 195.832L553.965 192.005ZM528.937 188.42C521.796 188.42 515.801 189.37 511.046 191.376L512.601 195.062C516.693 193.335 522.107 192.42 528.937 192.42V188.42ZM511.131 191.342C506.389 193.092 502.739 195.781 500.361 199.485L503.728 201.646C505.541 198.82 508.41 196.61 512.516 195.095L511.131 191.342ZM500.399 199.428C498.018 202.874 496.901 207.148 496.901 212.111H500.901C500.901 207.744 501.88 204.321 503.69 201.703L500.399 199.428ZM483.195 145.732L466.431 114.946L462.918 116.859L479.682 147.645L483.195 145.732ZM465.61 117.67C473.864 113.306 483.997 109.149 496.031 105.208L494.786 101.407C482.605 105.396 472.25 109.635 463.74 114.134L465.61 117.67ZM496.064 105.197C507.929 101.083 521.208 99.0103 535.922 99.0103V95.0103C520.833 95.0103 507.103 97.1359 494.753 101.418L496.064 105.197ZM535.922 99.0103C549.468 99.0103 561.45 100.965 571.898 104.833L573.287 101.082C562.314 97.0201 549.849 95.0103 535.922 95.0103V99.0103ZM571.898 104.833C582.321 108.692 590.376 114.325 596.166 121.687L599.31 119.214C592.993 111.182 584.285 105.153 573.287 101.082L571.898 104.833ZM596.185 121.71C601.91 128.768 604.819 137.517 604.819 148.088H608.819C608.819 136.736 605.674 127.06 599.292 119.19L596.185 121.71ZM604.819 148.088V262.139H608.819V148.088H604.819ZM606.819 260.139H563.163V264.139H606.819V260.139ZM565.163 262.139V157.534H561.163V262.139H565.163ZM565.163 157.534C565.163 152.904 564.435 148.868 562.884 145.502L559.251 147.176C560.494 149.874 561.163 153.302 561.163 157.534H565.163ZM562.906 145.552C561.356 141.928 558.895 138.954 555.571 136.649L553.292 139.936C556.022 141.829 557.985 144.219 559.229 147.126L562.906 145.552ZM555.633 136.693C552.585 134.403 548.946 132.784 544.762 131.798L543.845 135.691C547.578 136.571 550.69 137.983 553.23 139.891L555.633 136.693ZM544.762 131.798C540.627 130.823 536.046 130.345 531.032 130.345V134.345C535.797 134.345 540.063 134.8 543.845 135.691L544.762 131.798ZM531.032 130.345C523.434 130.345 516.175 131.178 509.258 132.85L510.198 136.738C516.785 135.145 523.728 134.345 531.032 134.345V130.345ZM509.258 132.85C502.407 134.507 496.448 136.53 491.404 138.936L493.127 142.547C497.862 140.288 503.545 138.347 510.198 136.738L509.258 132.85ZM491.404 138.936C486.487 141.282 482.758 143.321 480.291 145.051L482.587 148.326C484.776 146.791 488.265 144.866 493.127 142.547L491.404 138.936ZM628.292 103.208H727.479V99.2085H628.292V103.208ZM725.479 101.208V139.342H729.479V101.208H725.479ZM727.479 137.342H628.292V141.342H727.479V137.342ZM630.292 139.342V101.208H626.292V139.342H630.292ZM655.883 47.2326H699.539V43.2326H655.883V47.2326ZM697.539 45.2326V262.139H701.539V45.2326H697.539ZM699.539 260.139H655.883V264.139H699.539V260.139ZM657.883 262.139V45.2326H653.883V262.139H657.883ZM2 264.139H51.9425V260.139H2V264.139ZM49.9425 262.139V507.033H53.9425V262.139H49.9425ZM51.9425 505.033H2V509.033H51.9425V505.033ZM4 507.033V262.139H0V507.033H4ZM34.3846 304.471V262.139H30.3846V304.471H34.3846ZM32.3846 264.139H80.9301V260.139H32.3846V264.139ZM80.9301 264.139C100.046 264.139 116.156 267.255 129.329 273.397L131.019 269.772C117.184 263.321 100.464 260.139 80.9301 260.139V264.139ZM129.341 273.403C142.758 279.553 152.916 288.283 159.906 299.576L163.307 297.471C155.861 285.44 145.065 276.211 131.008 269.767L129.341 273.403ZM159.906 299.576C166.896 310.87 170.433 324.369 170.433 340.155H174.433C174.433 323.756 170.752 309.5 163.307 297.471L159.906 299.576ZM170.433 340.155C170.433 355.702 166.899 369.21 159.897 380.75L163.316 382.825C170.749 370.575 174.433 356.329 174.433 340.155H170.433ZM159.906 380.735C152.916 392.028 142.758 400.757 129.341 406.908L131.008 410.544C145.065 404.1 155.861 394.87 163.307 382.84L159.906 380.735ZM129.329 406.913C116.156 413.056 100.046 416.172 80.9301 416.172V420.172C100.464 420.172 117.184 416.99 131.019 410.538L129.329 406.913ZM80.9301 416.172H32.3846V420.172H80.9301V416.172ZM34.3846 418.172V375.84H30.3846V418.172H34.3846ZM32.3846 377.84H80.9301V373.84H32.3846V377.84ZM80.9301 377.84C94.4922 377.84 105.458 374.741 113.602 368.314L111.123 365.174C103.9 370.875 93.9109 373.84 80.9301 373.84V377.84ZM113.602 368.314C121.86 361.796 125.888 352.298 125.888 340.155H121.888C121.888 351.336 118.232 359.563 111.123 365.174L113.602 368.314ZM125.888 340.155C125.888 327.797 121.87 318.271 113.572 311.974L111.153 315.16C118.222 320.524 121.888 328.724 121.888 340.155H125.888ZM113.602 311.997C105.458 305.57 94.4922 302.471 80.9301 302.471V306.471C93.9109 306.471 103.9 309.436 111.123 315.137L113.602 311.997ZM80.9301 302.471H32.3846V306.471H80.9301V302.471ZM272.094 508.532C254.903 508.532 239.988 505.089 227.289 498.274L225.397 501.799C238.775 508.977 254.361 512.532 272.094 512.532V508.532ZM227.289 498.274C214.563 491.445 204.711 482.022 197.685 469.99L194.231 472.007C201.641 484.698 212.045 494.633 225.397 501.799L227.289 498.274ZM197.707 470.029C190.915 457.781 187.481 443.317 187.481 426.568H183.481C183.481 443.871 187.032 459.028 194.209 471.969L197.707 470.029ZM187.481 426.568C187.481 409.58 190.917 395.124 197.7 383.121L194.217 381.153C187.029 393.873 183.481 409.038 183.481 426.568H187.481ZM197.694 383.132C204.718 370.874 214.562 361.464 227.264 354.875L225.422 351.324C212.047 358.263 201.634 368.211 194.223 381.143L197.694 383.132ZM227.289 354.862C239.985 348.049 255.014 344.604 272.444 344.604V340.604C254.483 340.604 238.778 344.157 225.397 351.337L227.289 354.862ZM272.444 344.604C289.898 344.604 304.576 347.825 316.561 354.168L318.432 350.632C305.737 343.914 290.38 340.604 272.444 340.604V344.604ZM316.601 354.188C328.803 360.3 338.043 369.331 344.366 381.321L347.904 379.455C341.189 366.722 331.336 357.095 318.392 350.612L316.601 354.188ZM344.373 381.335C350.702 393.107 353.914 407.458 353.914 424.469H357.914C357.914 406.961 354.607 391.925 347.897 379.441L344.373 381.335ZM353.914 424.469C353.914 426.495 353.802 428.644 353.575 430.917L357.555 431.315C357.794 428.924 357.914 426.641 357.914 424.469H353.914ZM353.565 431.116C353.565 433.399 353.45 435.141 353.243 436.385L357.188 437.042C357.447 435.487 357.565 433.498 357.565 431.116H353.565ZM355.216 434.714H211.325V438.714H355.216V434.714ZM213.325 436.714V408.726H209.325V436.714H213.325ZM211.325 410.726H315.75V406.726H211.325V410.726ZM314.158 407.516L301.934 423.609L305.119 426.028L317.343 409.935L314.158 407.516ZM305.192 425.927C306.27 424.307 307.155 422.24 307.887 419.795L304.056 418.647C303.391 420.867 302.646 422.532 301.862 423.711L305.192 425.927ZM307.852 419.904C308.816 417.246 309.369 414.894 309.369 412.924H305.369C305.369 414.219 304.989 416.065 304.092 418.539L307.852 419.904ZM309.369 412.924C309.369 404.742 307.807 397.634 304.588 391.681L301.069 393.584C303.904 398.826 305.369 405.246 305.369 412.924H309.369ZM304.618 391.739C301.655 385.805 297.321 381.091 291.646 377.631L289.563 381.046C294.598 384.116 298.413 388.266 301.039 393.526L304.618 391.739ZM291.646 377.631C285.932 374.147 279.274 372.44 271.745 372.44V376.44C278.652 376.44 284.567 377.999 289.563 381.046L291.646 377.631ZM271.745 372.44C262.596 372.44 254.743 374.493 248.297 378.715L250.489 382.061C256.151 378.353 263.2 376.44 271.745 376.44V372.44ZM248.314 378.704C242.088 382.695 237.314 388.761 233.931 396.751L237.614 398.31C240.75 390.906 245.057 385.544 250.473 382.072L248.314 378.704ZM233.919 396.779C230.773 404.538 229.12 414.126 228.884 425.477L232.883 425.56C233.112 414.52 234.719 405.45 237.626 398.282L233.919 396.779ZM228.883 425.518C228.883 436.424 230.42 445.791 233.57 453.558L237.277 452.055C234.373 444.895 232.883 436.07 232.883 425.518H228.883ZM233.591 453.607C236.994 461.401 242.018 467.442 248.676 471.641L250.809 468.258C244.894 464.527 240.372 459.139 237.256 452.006L233.591 453.607ZM248.676 471.641C255.338 475.843 263.291 477.897 272.444 477.897V473.897C263.901 473.897 256.72 471.986 250.809 468.258L248.676 471.641ZM272.444 477.897C282.699 477.897 291.54 475.985 298.881 472.063L296.996 468.535C290.368 472.076 282.212 473.897 272.444 473.897V477.897ZM298.902 472.052C306.456 467.902 312.64 461.811 317.462 453.842L314.039 451.771C309.547 459.196 303.857 464.766 296.976 468.546L298.902 472.052ZM315.158 454.717L354.623 466.962L355.808 463.141L316.343 450.896L315.158 454.717ZM353.465 464.084C345.25 478.943 334.334 490.086 320.723 497.585L322.653 501.088C336.982 493.194 348.418 481.48 356.966 466.019L353.465 464.084ZM320.733 497.579C307.35 504.85 291.164 508.532 272.094 508.532V512.532C291.675 512.532 308.551 508.75 322.643 501.094L320.733 497.579ZM381.205 426.568C381.205 410.091 384.97 395.768 392.437 383.529L389.022 381.445C381.122 394.395 377.205 409.46 377.205 426.568H381.205ZM392.423 383.551C400.15 371.257 410.481 361.703 423.444 354.869L421.579 351.331C407.999 358.49 397.142 368.528 389.036 381.423L392.423 383.551ZM423.431 354.875C436.619 348.042 451.548 344.604 468.263 344.604V340.604C450.984 340.604 435.412 344.163 421.591 351.324L423.431 354.875ZM468.263 344.604C484.978 344.604 499.785 348.043 512.732 354.869L514.598 351.331C501.003 344.163 485.541 340.604 468.263 340.604V344.604ZM512.745 354.875C525.935 361.71 536.252 371.256 543.739 383.529L547.154 381.445C539.274 368.529 528.404 358.484 514.585 351.324L512.745 354.875ZM543.753 383.551C551.444 395.787 555.321 410.102 555.321 426.568H559.321C559.321 409.449 555.282 394.376 547.14 381.423L543.753 383.551ZM555.321 426.568C555.321 442.794 551.447 457.117 543.745 469.599L547.149 471.699C555.279 458.525 559.321 443.461 559.321 426.568H555.321ZM543.739 469.607C536.252 481.88 525.935 491.426 512.745 498.26L514.585 501.812C528.404 494.652 539.274 484.607 547.154 471.691L543.739 469.607ZM512.732 498.267C499.785 505.093 484.978 508.532 468.263 508.532V512.532C485.541 512.532 501.003 508.973 514.598 501.805L512.732 498.267ZM468.263 508.532C451.548 508.532 436.619 505.094 423.431 498.26L421.591 501.812C435.412 508.973 450.984 512.532 468.263 512.532V508.532ZM423.444 498.267C410.481 491.433 400.15 481.879 392.423 469.585L389.036 471.713C397.142 484.608 407.999 494.646 421.579 501.805L423.444 498.267ZM392.445 469.621C384.968 457.137 381.205 442.806 381.205 426.568H377.205C377.205 443.449 381.125 458.506 389.014 471.677L392.445 469.621ZM423.305 426.568C423.305 435.943 425.227 444.321 429.128 451.647L432.659 449.768C429.109 443.1 427.305 435.385 427.305 426.568H423.305ZM429.167 451.718C433.288 458.76 438.76 464.367 445.57 468.509L447.649 465.092C441.421 461.304 436.415 456.183 432.619 449.697L429.167 451.718ZM445.616 468.536C452.454 472.451 460.017 474.398 468.263 474.398V470.398C460.676 470.398 453.803 468.614 447.603 465.065L445.616 468.536ZM468.263 474.398C476.508 474.398 484.072 472.451 490.91 468.536L488.923 465.065C482.722 468.614 475.85 470.398 468.263 470.398V474.398ZM490.955 468.509C497.777 464.361 503.143 458.738 507.035 451.672L503.531 449.743C499.972 456.204 495.094 461.311 488.877 465.092L490.955 468.509ZM507.024 451.692C511.173 444.357 513.22 435.963 513.22 426.568H509.22C509.22 435.365 507.309 443.064 503.542 449.723L507.024 451.692ZM513.22 426.568C513.22 417.173 511.173 408.779 507.024 401.444L503.542 403.413C507.309 410.072 509.22 417.771 509.22 426.568H513.22ZM507.049 401.488C503.156 394.178 497.775 388.529 490.91 384.6L488.923 388.071C495.096 391.605 499.959 396.685 503.518 403.368L507.049 401.488ZM490.91 384.6C484.072 380.685 476.508 378.738 468.263 378.738V382.738C475.85 382.738 482.722 384.522 488.923 388.071L490.91 384.6ZM468.263 378.738C460.017 378.738 452.454 380.685 445.616 384.6L447.603 388.071C453.803 384.522 460.676 382.738 468.263 382.738V378.738ZM445.616 384.6C438.763 388.523 433.275 394.157 429.152 401.444L432.634 403.413C436.428 396.706 441.418 391.612 447.603 388.071L445.616 384.6ZM429.128 401.488C425.227 408.815 423.305 417.193 423.305 426.568H427.305C427.305 417.751 429.109 410.036 432.659 403.368L429.128 401.488ZM635.613 582H590.211V586H635.613V582ZM592.211 584V346.103H588.211V584H592.211ZM590.211 348.103H635.613V344.103H590.211V348.103ZM633.613 346.103V584H637.613V346.103H633.613ZM765.629 426.568C765.629 444.497 762.073 459.652 755.059 472.117L758.545 474.079C765.967 460.889 769.629 445.023 769.629 426.568H765.629ZM755.059 472.117C748.008 484.649 738.72 494.047 727.2 500.383L729.127 503.888C741.356 497.162 751.161 487.202 758.545 474.079L755.059 472.117ZM727.185 500.391C715.846 506.752 703.611 509.931 690.445 509.931V513.931C704.288 513.931 717.198 510.58 729.142 503.88L727.185 500.391ZM690.445 509.931C677.065 509.931 665.477 506.53 655.6 499.784L653.344 503.087C663.957 510.335 676.35 513.931 690.445 513.931V509.931ZM655.618 499.796C645.951 493.04 638.369 483.44 632.906 470.9L629.239 472.497C634.952 485.613 642.97 495.837 653.327 503.075L655.618 499.796ZM632.918 470.928C627.686 458.396 625.04 443.625 625.04 426.568H621.04C621.04 444.03 623.749 459.346 629.227 472.469L632.918 470.928ZM625.04 426.568C625.04 409.273 627.688 394.509 632.913 382.22L629.232 380.655C623.747 393.555 621.04 408.878 621.04 426.568H625.04ZM632.906 382.236C638.369 369.696 645.951 360.096 655.618 353.34L653.327 350.061C642.97 357.299 634.952 367.523 629.239 380.639L632.906 382.236ZM655.6 353.352C665.477 346.606 677.065 343.205 690.445 343.205V339.205C676.35 339.205 663.957 342.801 653.344 350.049L655.6 353.352ZM690.445 343.205C703.611 343.205 715.846 346.384 727.185 352.745L729.142 349.256C717.198 342.556 704.288 339.205 690.445 339.205V343.205ZM727.2 352.753C738.72 359.089 748.008 368.487 755.059 381.019L758.545 379.057C751.161 365.934 741.356 355.974 729.127 349.248L727.2 352.753ZM755.067 381.033C762.07 393.253 765.629 408.399 765.629 426.568H769.629C769.629 407.886 765.969 392.012 758.537 379.044L755.067 381.033ZM722.829 426.568C722.829 416.728 720.791 408.199 716.618 401.068L713.166 403.089C716.909 409.485 718.829 417.283 718.829 426.568H722.829ZM716.618 401.068C712.475 393.989 706.845 388.587 699.747 384.909L697.907 388.461C704.312 391.78 709.393 396.641 713.166 403.089L716.618 401.068ZM699.772 384.923C692.942 381.258 685.396 379.437 677.173 379.437V383.437C684.783 383.437 691.673 385.116 697.881 388.447L699.772 384.923ZM677.173 379.437C670.06 379.437 663.102 381.284 656.32 384.923L658.212 388.447C664.469 385.09 670.782 383.437 677.173 383.437V379.437ZM656.344 384.91C649.7 388.361 644.207 393.644 639.85 400.675L643.25 402.782C647.275 396.286 652.259 391.54 658.188 388.46L656.344 384.91ZM639.824 400.719C635.647 407.857 633.613 416.505 633.613 426.568H637.613C637.613 417.039 639.537 409.128 643.276 402.739L639.824 400.719ZM633.613 426.568C633.613 436.631 635.647 445.279 639.824 452.417L643.276 450.397C639.537 444.008 637.613 436.096 637.613 426.568H633.613ZM639.85 452.461C644.201 459.483 649.679 464.867 656.294 468.548L658.239 465.053C652.281 461.737 647.281 456.859 643.25 450.354L639.85 452.461ZM656.371 468.589C663.145 471.982 670.086 473.698 677.173 473.698V469.698C670.757 469.698 664.426 468.15 658.162 465.012L656.371 468.589ZM677.173 473.698C685.396 473.698 692.942 471.878 699.772 468.213L697.881 464.688C691.673 468.02 684.783 469.698 677.173 469.698V473.698ZM699.747 468.227C706.845 464.549 712.475 459.147 716.618 452.068L713.166 450.047C709.393 456.495 704.312 461.356 697.907 464.675L699.747 468.227ZM716.618 452.068C720.791 444.936 722.829 436.408 722.829 426.568H718.829C718.829 435.853 716.909 443.651 713.166 450.047L716.618 452.068ZM801.353 236.151H846.755V232.151H801.353V236.151ZM844.755 234.151V507.033H848.755V234.151H844.755ZM846.755 505.033H801.353V509.033H846.755V505.033ZM803.353 507.033V234.151H799.353V507.033H803.353ZM967.18 508.532C949.989 508.532 935.074 505.089 922.375 498.274L920.483 501.799C933.861 508.977 949.447 512.532 967.18 512.532V508.532ZM922.375 498.274C909.649 491.445 899.797 482.022 892.771 469.99L889.317 472.007C896.727 484.698 907.131 494.633 920.483 501.799L922.375 498.274ZM892.793 470.029C886.001 457.781 882.567 443.317 882.567 426.568H878.567C878.567 443.871 882.118 459.028 889.295 471.969L892.793 470.029ZM882.567 426.568C882.567 409.58 886.003 395.124 892.786 383.121L889.303 381.153C882.115 393.873 878.567 409.038 878.567 426.568H882.567ZM892.78 383.132C899.804 370.874 909.648 361.464 922.35 354.875L920.508 351.324C907.133 358.263 896.72 368.211 889.309 381.143L892.78 383.132ZM922.375 354.862C935.071 348.049 950.1 344.604 967.53 344.604V340.604C949.569 340.604 933.864 344.157 920.483 351.337L922.375 354.862ZM967.53 344.604C984.984 344.604 999.662 347.825 1011.65 354.168L1013.52 350.632C1000.82 343.914 985.466 340.604 967.53 340.604V344.604ZM1011.69 354.188C1023.89 360.3 1033.13 369.331 1039.45 381.321L1042.99 379.455C1036.27 366.722 1026.42 357.095 1013.48 350.612L1011.69 354.188ZM1039.46 381.335C1045.79 393.107 1049 407.458 1049 424.469H1053C1053 406.961 1049.69 391.925 1042.98 379.441L1039.46 381.335ZM1049 424.469C1049 426.495 1048.89 428.644 1048.66 430.917L1052.64 431.315C1052.88 428.924 1053 426.641 1053 424.469H1049ZM1048.65 431.116C1048.65 433.399 1048.54 435.141 1048.33 436.385L1052.27 437.042C1052.53 435.487 1052.65 433.498 1052.65 431.116H1048.65ZM1050.3 434.714H906.411V438.714H1050.3V434.714ZM908.411 436.714V408.726H904.411V436.714H908.411ZM906.411 410.726H1010.84V406.726H906.411V410.726ZM1009.24 407.516L997.02 423.609L1000.21 426.028L1012.43 409.935L1009.24 407.516ZM1000.28 425.927C1001.36 424.307 1002.24 422.24 1002.97 419.795L999.142 418.647C998.477 420.867 997.732 422.532 996.948 423.711L1000.28 425.927ZM1002.94 419.904C1003.9 417.246 1004.45 414.894 1004.45 412.924H1000.45C1000.45 414.219 1000.08 416.065 999.178 418.539L1002.94 419.904ZM1004.45 412.924C1004.45 404.742 1002.89 397.634 999.674 391.681L996.155 393.584C998.99 398.826 1000.45 405.246 1000.45 412.924H1004.45ZM999.704 391.739C996.741 385.805 992.407 381.091 986.732 377.631L984.649 381.046C989.684 384.116 993.499 388.266 996.125 393.526L999.704 391.739ZM986.732 377.631C981.018 374.147 974.36 372.44 966.831 372.44V376.44C973.738 376.44 979.653 377.999 984.649 381.046L986.732 377.631ZM966.831 372.44C957.682 372.44 949.829 374.493 943.383 378.715L945.575 382.061C951.237 378.353 958.286 376.44 966.831 376.44V372.44ZM943.4 378.704C937.174 382.695 932.4 388.761 929.017 396.751L932.7 398.31C935.836 390.906 940.143 385.544 945.559 382.072L943.4 378.704ZM929.005 396.779C925.859 404.538 924.206 414.126 923.97 425.477L927.969 425.56C928.198 414.52 929.805 405.45 932.712 398.282L929.005 396.779ZM923.969 425.518C923.969 436.424 925.506 445.791 928.656 453.558L932.363 452.055C929.459 444.895 927.969 436.07 927.969 425.518H923.969ZM928.677 453.607C932.08 461.401 937.104 467.442 943.762 471.641L945.895 468.258C939.98 464.527 935.458 459.139 932.342 452.006L928.677 453.607ZM943.762 471.641C950.424 475.843 958.377 477.897 967.53 477.897V473.897C958.987 473.897 951.806 471.986 945.895 468.258L943.762 471.641ZM967.53 477.897C977.785 477.897 986.626 475.985 993.967 472.063L992.082 468.535C985.454 472.076 977.298 473.897 967.53 473.897V477.897ZM993.988 472.052C1001.54 467.902 1007.73 461.811 1012.55 453.842L1009.13 451.771C1004.63 459.196 998.943 464.766 992.062 468.546L993.988 472.052ZM1010.24 454.717L1049.71 466.962L1050.89 463.141L1011.43 450.896L1010.24 454.717ZM1048.55 464.084C1040.34 478.943 1029.42 490.086 1015.81 497.585L1017.74 501.088C1032.07 493.194 1043.5 481.48 1052.05 466.019L1048.55 464.084ZM1015.82 497.579C1002.44 504.85 986.25 508.532 967.18 508.532V512.532C986.761 512.532 1003.64 508.75 1017.73 501.094L1015.82 497.579Z" fill="url(#paint10_linear_196_285)" fill-opacity="0.2" mask="url(#path-1-outside-1_196_285)"/>
<defs>
<linearGradient id="paint0_linear_196_285" x1="578.5" y1="667" x2="-56" y2="-542.5" gradientUnits="userSpaceOnUse">
<stop stop-color="#AE9AF3"/>
<stop offset="0.23316" stop-color="#5A3DBA"/>
<stop offset="0.574546" stop-color="#100A4A"/>
<stop offset="1" stop-color="#06040C" stop-opacity="0.5"/>
</linearGradient>
<linearGradient id="paint1_linear_196_285" x1="578.5" y1="667" x2="-56" y2="-542.5" gradientUnits="userSpaceOnUse">
<stop stop-color="#AE9AF3"/>
<stop offset="0.23316" stop-color="#5A3DBA"/>
<stop offset="0.574546" stop-color="#100A4A"/>
<stop offset="1" stop-color="#06040C" stop-opacity="0.5"/>
</linearGradient>
<linearGradient id="paint2_linear_196_285" x1="578.5" y1="667" x2="-56" y2="-542.5" gradientUnits="userSpaceOnUse">
<stop stop-color="#AE9AF3"/>
<stop offset="0.23316" stop-color="#5A3DBA"/>
<stop offset="0.574546" stop-color="#100A4A"/>
<stop offset="1" stop-color="#06040C" stop-opacity="0.5"/>
</linearGradient>
<linearGradient id="paint3_linear_196_285" x1="578.5" y1="667" x2="-56" y2="-542.5" gradientUnits="userSpaceOnUse">
<stop stop-color="#AE9AF3"/>
<stop offset="0.23316" stop-color="#5A3DBA"/>
<stop offset="0.574546" stop-color="#100A4A"/>
<stop offset="1" stop-color="#06040C" stop-opacity="0.5"/>
</linearGradient>
<linearGradient id="paint4_linear_196_285" x1="578.5" y1="667" x2="-56" y2="-542.5" gradientUnits="userSpaceOnUse">
<stop stop-color="#AE9AF3"/>
<stop offset="0.23316" stop-color="#5A3DBA"/>
<stop offset="0.574546" stop-color="#100A4A"/>
<stop offset="1" stop-color="#06040C" stop-opacity="0.5"/>
</linearGradient>
<linearGradient id="paint5_linear_196_285" x1="578.5" y1="667" x2="-56" y2="-542.5" gradientUnits="userSpaceOnUse">
<stop stop-color="#AE9AF3"/>
<stop offset="0.23316" stop-color="#5A3DBA"/>
<stop offset="0.574546" stop-color="#100A4A"/>
<stop offset="1" stop-color="#06040C" stop-opacity="0.5"/>
</linearGradient>
<linearGradient id="paint6_linear_196_285" x1="578.5" y1="667" x2="-56" y2="-542.5" gradientUnits="userSpaceOnUse">
<stop stop-color="#AE9AF3"/>
<stop offset="0.23316" stop-color="#5A3DBA"/>
<stop offset="0.574546" stop-color="#100A4A"/>
<stop offset="1" stop-color="#06040C" stop-opacity="0.5"/>
</linearGradient>
<linearGradient id="paint7_linear_196_285" x1="578.5" y1="667" x2="-56" y2="-542.5" gradientUnits="userSpaceOnUse">
<stop stop-color="#AE9AF3"/>
<stop offset="0.23316" stop-color="#5A3DBA"/>
<stop offset="0.574546" stop-color="#100A4A"/>
<stop offset="1" stop-color="#06040C" stop-opacity="0.5"/>
</linearGradient>
<linearGradient id="paint8_linear_196_285" x1="578.5" y1="667" x2="-56" y2="-542.5" gradientUnits="userSpaceOnUse">
<stop stop-color="#AE9AF3"/>
<stop offset="0.23316" stop-color="#5A3DBA"/>
<stop offset="0.574546" stop-color="#100A4A"/>
<stop offset="1" stop-color="#06040C" stop-opacity="0.5"/>
</linearGradient>
<linearGradient id="paint9_linear_196_285" x1="578.5" y1="667" x2="-56" y2="-542.5" gradientUnits="userSpaceOnUse">
<stop stop-color="#AE9AF3"/>
<stop offset="0.23316" stop-color="#5A3DBA"/>
<stop offset="0.574546" stop-color="#100A4A"/>
<stop offset="1" stop-color="#06040C" stop-opacity="0.5"/>
</linearGradient>
<linearGradient id="paint10_linear_196_285" x1="526.5" y1="5" x2="526.5" y2="584" gradientUnits="userSpaceOnUse">
<stop stop-color="#858CFF"/>
<stop offset="1" stop-color="#130052"/>
</linearGradient>
</defs>
</svg>
